{"title":"Love.at.First.Hiccup.2009.DVDRip.XVID.FEEL-FREE","uid":6831931,"size":876161505,"categoryP":"video","categoryS":"movies","magnet":"?xt=urn:btih:7f62146a6b4412fa377c4b9cae968b979ffea345&amp;dn=Love.at.First.Hiccup.2009.DVDRip.XVID.FEEL-FREE&amp;tr=udp%3A%2F%2Ftracker.openbittorrent.com%3A80&amp;tr=udp%3A%2F%2Fopen.demonii.com%3A1337&amp;tr=udp%3A%2F%2Ftracker.coppersurfer.tk%3A6969&amp;tr=udp%3A%2F%2Fexodus.desync.com%3A6969","seeders":0,"leechers":1,"uploader":"TvTeam","files":10,"time":1321898923,"description":". \n &lt;a href=&quot;\nhttp://www.torrenting.com&quot; rel=&quot;nofollow&quot; target=&quot;_NEW&quot;&gt;\nhttp://www.torrenting.com&lt;/a&gt;          :     Once &amp; For all ;)\n\n\n               www . Torrenting . Com \n\n(((((((((((((= Enjoy No RAR releases =))))))))))))))))))))\n\n\n...................................NFO:....................................\n\n.Genre:Comedy \nLanguage:English\nIMDb:http://www.imdb.com/title/tt1307065/\nSource:DVD\nSample:YES\n...........................................\nGeneral\nComplete name                    : Love.at.First.Hiccup.2009.DVDRip.XVID.FEEL-FREE\nFormat                           : AVI\nFormat/Info                      : Audio Video Interleave\nFile size                        : 823 MiB\nDuration                         : 1h 25mn\nOverall bit rate                 : 1 341 Kbps\n...........................................\nVideo\nFormat                           : xvid\nCodec ID                         : xvid\nDuration                         : 1h 25mn\nBit rate                         : 1 200 Kbps\nWidth                            : 720 pixels\nHeight                           : 304 pixels\nDisplay aspect ratio             : 2.35:1\nFrame rate                       : 25.000 fps\nResolution                       : 24 bits\nBits/(Pixel*Frame)               : 0.219\nStream size                      : 737 MiB (89%)\n...........................................\nAudio\nID                               : 1\nFormat                           : MPEG Audio\nFormat version                   : Version 1\nFormat profile                   : Layer 3\nFormat settings, Mode            : Joint stereo / MS Stereo\nCodec ID                         : 55\nCodec ID/Hint                    : MP3\nDuration                         : 1h 25mn\nBit rate mode                    : Constant\nBit rate                         : 128 Kbps\nChannel(s)                       : 2 channels\nSampling rate                    : 48.0 KHz\nResolution                       : 16 bits\nStream size                      : 78.6 MiB (10%)\nAlignment                        : Aligned on interleaves\nInterleave, duration             : 24 ms (0.60 video frame)\nInterleave, preload duration     : 24 ms\nWriting library                  : LAME3.97\n............................................\nPlot:\n   A high school romantic comedy about freshman Victor who has contracted a case of Anya-itis, (acute and incurable love passion for high school senior Anja.) And why shouldn't he?\n...................................................\n","torrent":{"xt":"urn:btih:7f62146a6b4412fa377c4b9cae968b979ffea345","amp;dn":"Love.at.First.Hiccup.2009.DVDRip.XVID.FEEL-FREE","amp;tr":["udp%3A%2F%2Ftracker.openbittorrent.com%3A80","udp%3A%2F%2Fopen.demonii.com%3A1337","udp%3A%2F%2Ftracker.coppersurfer.tk%3A6969","udp%3A%2F%2Fexodus.desync.com%3A6969"],"infoHash":"7f62146a6b4412fa377c4b9cae968b979ffea345","infoHashBuffer":{"type":"Buffer","data":[127,98,20,106,107,68,18,250,55,124,75,156,174,150,139,151,159,254,163,69]},"announce":[],"urlList":[]}}